<svg width="150" height="150" xmlns="http://www.w3.org/2000/svg">
 <!-- Created with Method Draw - http://github.com/duopixel/Method-Draw/ -->

 <g>
  <title>background</title>
  <rect fill="none" id="canvas_background" height="152" width="152" y="-1" x="-1"/>
 </g>
 <g>
  <title>Layer 1</title>
  <!-- Created with Method Draw - http://github.com/duopixel/Method-Draw/ -->
  <g id="svg_35">
   <g transform="matrix(0.05284713925482465,0,0,0.05284713925482465,0,0) " id="svg_32">
    <title transform="translate(5197.52490234375,0) translate(0,3584.5) ">background</title>
    <rect x="5196.524902" y="3583.5" width="582" height="402" id="svg_30" fill="#fff"/>
    <g id="svg_29" display="none">
     <rect id="svg_33" width="580" height="400" x="5197.524902" y="3584.5" stroke-width="0" fill="url(#gridpattern)"/>
    </g>
   </g>
   <g transform="matrix(0.05284713925482465,0,0,0.05284713925482465,0,0) " id="svg_34">
    <title transform="translate(5197.52490234375,0) translate(0,3584.5) ">Layer 1</title>
    <g id="svg_17">
     <g id="svg_18" transform="matrix(1.7777778837415923,0,0,1.7777778837415923,0,0) ">
      <g id="svg_19">
       <g id="svg_20">
        <g id="svg_21">
         <g id="svg_22">
          <g id="svg_23">
           <g id="svg_24">
            <path fill="#000000" d="m3130.397664,2110.257127l0,12.912c0,0.221 -0.011,0.432 -0.021,0.653c-0.338,7.02 -6.282,12.69 -13.756,13.291l0,3.142c0,6.683 -5.438,12.121 -12.121,12.121l-24.77,0c-6.683,0 -12.122,-5.438 -12.122,-12.121l0,-43.216c0,-0.821 0.085,-1.623 0.253,-2.402l3.1,0.548c-0.127,0.601 -0.19,1.223 -0.19,1.854l0,20.808c11.258,-0.127 21.503,-1.95 29.408,-4.891c0.538,-0.19 1.064,-0.391 1.581,-0.611c0.548,-0.211 1.075,-0.443 1.581,-0.664c0.358,-0.169 0.717,-0.327 1.055,-0.496c0.358,-0.168 0.706,-0.348 1.054,-0.517c0.548,-0.284 1.086,-0.579 1.603,-0.864c0.632,-0.368 1.232,-0.737 1.802,-1.127c1.876,-1.233 3.426,-2.583 4.606,-3.995c0.074,-0.074 0.137,-0.158 0.2,-0.242c-0.073,0.01 -0.137,0.021 -0.2,0.052l0,-1.623l0,-1.614l0,-0.864l0,-0.854l0,-1.592l0,-0.907c0,-0.231 -0.011,-0.463 -0.021,-0.685c-0.042,-0.58 -0.147,-1.139 -0.295,-1.687l3.036,-0.854c0.231,0.801 0.369,1.634 0.421,2.487c7.714,0.624 13.796,6.643 13.796,13.958zm-3.162,12.912l0,-12.912c0,-5.576 -4.648,-10.183 -10.614,-10.783l0,0.843l0,0.854c4.796,0.601 8.506,4.447 8.506,9.086l0,12.912c0,4.638 -3.71,8.484 -8.506,9.086l0,0.843l0,0.854c5.038,-0.506 9.128,-3.868 10.288,-8.253c0.209,-0.812 0.326,-1.665 0.326,-2.53zm-5.271,0l0,-12.912c0,-2.899 -2.298,-5.334 -5.344,-5.882l0,24.675c3.046,-0.548 5.344,-2.982 5.344,-5.881z" id="svg_28"/>
            <path fill="#000000" d="m3116.178664,2093.814127l-3.036,0.854c-1.043,-3.795 -4.521,-6.588 -8.643,-6.588l-24.77,0c-1.539,0 -2.994,0.39 -4.27,1.086c-2.098,1.138 -3.688,3.088 -4.353,5.428c-0.053,0.19 -0.105,0.391 -0.147,0.591l-3.1,-0.548c0.053,-0.327 0.138,-0.644 0.222,-0.949c0.675,-2.351 2.045,-4.406 3.868,-5.935c-1.106,-0.21 -1.907,-0.948 -1.971,-1.896c-0.021,-0.043 -0.021,-0.096 -0.021,-0.148l0,-0.927l2.625,0l4.616,0l34.415,0l0,-2.108l0.011,-0.917l1.95,-0.653c0.432,0.368 0.695,0.875 0.695,1.443l0,3.162c0,1.022 -0.822,1.824 -1.992,2.045c1.856,1.559 3.248,3.657 3.901,6.06z" id="svg_27"/>
            <path fill="#000000" d="m3114.270664,2076.485127l0,3.162c0,0.569 -0.264,1.075 -0.695,1.455l-1.95,0.653l-0.011,0.917l-39.032,0l0,2.108l-2.625,0l0,-2.235c0,-0.568 0.264,-1.075 0.696,-1.443c-0.433,-0.38 -0.696,-0.886 -0.696,-1.455l0,-3.162c0,-1.201 1.139,-2.108 2.646,-2.108l39.021,0c1.507,-0.001 2.646,0.907 2.646,2.108zm-2.656,2.434l0,-2.107l-39.032,0l0,2.107l39.032,0z" id="svg_26"/>
            <path fill="#000000" d="m3113.659664,2104.439127c-0.063,0.084 -0.126,0.168 -0.2,0.242l0,-0.19c0.063,-0.032 0.126,-0.042 0.2,-0.052z" id="svg_25"/>
           </g>
          </g>
         </g>
        </g>
       </g>
      </g>
     </g>
    </g>
   </g>
  </g>
  <g id="svg_52">
   <g transform="matrix(1.7777778837415923,0,0,1.7777778837415923,0,0) " id="svg_39">
    <g id="svg_40">
     <g id="svg_41">
      <g id="svg_42">
       <g id="svg_43">
        <g id="svg_44">
         <g id="svg_45">
          <path id="svg_46" d="m76.431255,39.413503l0,12.912c0,0.221 -0.011,0.432 -0.021,0.653c-0.338,7.02 -6.282,12.69 -13.756,13.291l0,3.142c0,6.683 -5.438,12.121 -12.121,12.121l-24.77,0c-6.683,0 -12.122,-5.438 -12.122,-12.121l0,-43.216c0,-0.821 0.085,-1.623 0.253,-2.402l3.1,0.548c-0.127,0.601 -0.19,1.223 -0.19,1.854l0,20.808c11.258,-0.127 21.503,-1.95 29.408,-4.891c0.538,-0.19 1.064,-0.391 1.581,-0.611c0.548,-0.211 1.075,-0.443 1.581,-0.664c0.358,-0.169 0.717,-0.327 1.055,-0.496c0.358,-0.168 0.706,-0.348 1.054,-0.517c0.548,-0.284 1.086,-0.579 1.603,-0.864c0.632,-0.368 1.232,-0.737 1.802,-1.127c1.876,-1.233 3.426,-2.583 4.606,-3.995c0.074,-0.074 0.137,-0.158 0.2,-0.242c-0.073,0.01 -0.137,0.021 -0.2,0.052l0,-1.623l0,-1.614l0,-0.864l0,-0.854l0,-1.592l0,-0.907c0,-0.231 -0.011,-0.463 -0.021,-0.685c-0.042,-0.58 -0.147,-1.139 -0.295,-1.687l3.036,-0.854c0.231,0.801 0.369,1.634 0.421,2.487c7.714,0.624 13.796,6.643 13.796,13.958zm-3.162,12.912l0,-12.912c0,-5.576 -4.648,-10.183 -10.614,-10.783l0,0.843l0,0.854c4.796,0.601 8.506,4.447 8.506,9.086l0,12.912c0,4.638 -3.71,8.484 -8.506,9.086l0,0.843l0,0.854c5.038,-0.506 9.128,-3.868 10.288,-8.253c0.209,-0.812 0.326,-1.665 0.326,-2.53zm-5.271,0l0,-12.912c0,-2.899 -2.298,-5.334 -5.344,-5.882l0,24.675c3.046,-0.548 5.344,-2.982 5.344,-5.881z" fill="#ffffff"/>
          <path id="svg_47" d="m62.212255,22.970503l-3.036,0.854c-1.043,-3.795 -4.521,-6.588 -8.643,-6.588l-24.77,0c-1.539,0 -2.994,0.39 -4.27,1.086c-2.098,1.138 -3.688,3.088 -4.353,5.428c-0.053,0.19 -0.105,0.391 -0.147,0.591l-3.1,-0.548c0.053,-0.327 0.138,-0.644 0.222,-0.949c0.675,-2.351 2.045,-4.406 3.868,-5.935c-1.106,-0.21 -1.907,-0.948 -1.971,-1.896c-0.021,-0.043 -0.021,-0.096 -0.021,-0.148l0,-0.927l2.625,0l4.616,0l34.415,0l0,-2.108l0.011,-0.917l1.95,-0.653c0.432,0.368 0.695,0.875 0.695,1.443l0,3.162c0,1.022 -0.822,1.824 -1.992,2.045c1.856,1.559 3.248,3.657 3.901,6.06z" fill="#ffffff"/>
          <path id="svg_48" d="m60.304255,5.641503l0,3.162c0,0.569 -0.264,1.075 -0.695,1.455l-1.95,0.653l-0.011,0.917l-39.032,0l0,2.108l-2.625,0l0,-2.235c0,-0.568 0.264,-1.075 0.696,-1.443c-0.433,-0.38 -0.696,-0.886 -0.696,-1.455l0,-3.162c0,-1.201 1.139,-2.108 2.646,-2.108l39.021,0c1.507,-0.001 2.646,0.907 2.646,2.108zm-2.656,2.434l0,-2.107l-39.032,0l0,2.107l39.032,0z" fill="#ffffff"/>
          <path id="svg_49" d="m59.693255,33.595503c-0.063,0.084 -0.126,0.168 -0.2,0.242l0,-0.19c0.063,-0.032 0.126,-0.042 0.2,-0.052z" fill="#ffffff"/>
         </g>
        </g>
       </g>
      </g>
     </g>
    </g>
   </g>
  </g>
 </g>
</svg>